<svg width="18" height="18" xmlns="http://www.w3.org/2000/svg">
 <defs>
  <radialGradient gradientUnits="userSpaceOnUse" gradientTransform="translate(41.88 -7.4) scale(0.94 0.94)" r="11.18" cy="17.12" cx="-36.63" id="a445c717-9d75-44c7-ba6b-0d8f2383e560">
   <stop stop-color="#ffd70f" offset="0.27"/>
   <stop stop-color="#ffcb12" offset="0.49"/>
   <stop stop-color="#feac19" offset="0.88"/>
   <stop stop-color="#fea11b" offset="1"/>
  </radialGradient>
 </defs>
 <title>Icon-general-2</title>
 <g>
  <title>background</title>
  <rect fill="none" id="canvas_background" height="602" width="802" y="-1" x="-1"/>
 </g>
 <g>
  <title>Layer 1</title>
  <path fill="url(#a445c717-9d75-44c7-ba6b-0d8f2383e560)" d="m13.56,7.19a2.07,2.07 0 0 0 0,-2.93l0,0l-3.56,-3.57a2.06,2.06 0 0 0 -2.92,0l0,0l-3.56,3.57a2.09,2.09 0 0 0 0,2.93l3,3a0.61,0.61 0 0 1 0.17,0.41l0,5.52a0.7,0.7 0 0 0 0.2,0.5l1.35,1.35a0.45,0.45 0 0 0 0.66,0l1.31,-1.31l0,0l0.77,-0.77a0.26,0.26 0 0 0 0,-0.38l-0.55,-0.56a0.29,0.29 0 0 1 0,-0.42l0.55,-0.56a0.26,0.26 0 0 0 0,-0.38l-0.58,-0.59a0.28,0.28 0 0 1 0,-0.41l0.6,-0.59a0.26,0.26 0 0 0 0,-0.38l-0.77,-0.78l0,-0.28l3.33,-3.37zm-5,-5.64a1.18,1.18 0 1 1 -1.19,1.18a1.17,1.17 0 0 1 1.17,-1.18l0.02,0z" id="e3d1e58c-f78e-4fb5-9857-0c9331da9979"/>
  <path opacity="0.75" fill="#ff9300" d="m7.62,16.21l0,0a0.25,0.25 0 0 0 0.38,-0.21l0,-4.45a0.27,0.27 0 0 0 -0.11,-0.22l0,0a0.25,0.25 0 0 0 -0.39,0.22l0,4.45a0.27,0.27 0 0 0 0.12,0.21z" id="a21a8f7a-61cc-4035-8449-e5c8fe4d4d5e"/>
  <rect opacity="0.75" fill="#ff9300" rx="0.32" height="0.69" width="5.86" y="5.45" x="5.69" id="ecd3189c-fb1e-4a0e-a2b6-ba2f11dda484"/>
  <rect opacity="0.75" fill="#ff9300" rx="0.32" height="0.69" width="5.86" y="6.57" x="5.69" id="a1949a3c-4818-4bd1-b236-0d970b92fc62"/>
  <line stroke="#ce0000" stroke-linecap="undefined" stroke-linejoin="undefined" id="svg_2" y2="15.16789" x2="2.92857" y1="2.82095" x1="14.96939" stroke-width="1.5" fill="none"/>
 </g>
</svg>