<svg viewBox="0 0 50 50" class="" role="presentation" focusable="false" xmlns="http://www.w3.org/2000/svg" xmlns:xlink="http://www.w3.org/1999/xlink" id="FxSymbol0-058" data-type="1"><g><title></title><path d="M6 27l-6 6h50l-6-6z" class="msportalfx-svg-c19" fill="#0072c6"></path><path d="M6 27l-6 6h50l-6-6z" opacity=".4" class="msportalfx-svg-c14" fill="#57a300"></path><path d="M37.018 12.8L32.261 8l-1.982-2H6v42h33V14.8z" class="msportalfx-svg-c03" fill="#a0a1a2"></path><path d="M30.081 8H7.982v38h29.036V15h-6.937z" class="msportalfx-svg-c01" fill="#ffffff"></path><path d="M30.081 8H7.982v38h29.036V15h-6.937z" opacity=".3" class="msportalfx-svg-c12" fill="#fee087"></path><path d="M42.018 7.8L37.261 3l-1.982-2H10v42h34V9.8z" class="msportalfx-svg-c03" fill="#a0a1a2"></path><path d="M35.081 3H11.982v38h30.036V10h-6.937z" class="msportalfx-svg-c01" fill="#ffffff"></path><path d="M35.081 3H11.982v38h30.036V10h-6.937z" opacity=".3" class="msportalfx-svg-c12" fill="#fee087"></path><path d="M27 15.917l7 4.041v8.083l-7 4.041-7-4.041v-8.083l7-4.041m0-2.275a.221.221 0 0 0-.112.03l-8.775 5.066a.227.227 0 0 0-.113.196v10.132c0 .08.043.155.112.195l8.775 5.066a.227.227 0 0 0 .224 0l8.775-5.066a.223.223 0 0 0 .112-.195V18.934a.226.226 0 0 0-.112-.195l-8.775-5.066a.216.216 0 0 0-.111-.031z" opacity=".7" class="msportalfx-svg-c04" fill="#7a7a7a"></path><path d="M0 33h50v17H0z" class="msportalfx-svg-c19" fill="#0072c6"></path><path d="M0 33h50v17H0z" opacity=".4" class="msportalfx-svg-c14" fill="#57a300"></path><path d="M0 33v17h17l13-17z" opacity=".2" class="msportalfx-svg-c01" fill="#ffffff"></path></g><defs>
</defs>
</svg>